<svg version="1.1" id="Layer_1" xmlns="http://www.w3.org/2000/svg" xmlns:xlink="http://www.w3.org/1999/xlink" x="0px" y="0px"
	 width="100%" viewBox="0 0 838 200" enable-background="new 0 0 838 200" xml:space="preserve">
<path fill="#000000" opacity="1.000000" stroke="none" 
	d="
M1.000000,95.000000 
	C1.000000,63.673203 1.000000,32.346405 1.000000,1.014707 
	C280.268524,1.009805 559.537048,1.009805 838.902771,1.009805 
	C838.902771,67.587822 838.902771,134.175827 838.902771,200.881927 
	C559.666687,200.881927 280.333344,200.881927 1.000000,200.881927 
	C1.000000,169.917389 1.000000,138.923706 1.301718,107.187332 
	C5.841809,113.537605 10.116050,120.609474 14.305665,127.731133 
	C16.998503,132.308517 20.300108,135.983017 26.106701,135.983871 
	C35.738258,135.985306 45.369831,135.888885 55.443478,135.903259 
	C58.486763,135.972839 61.087967,135.972839 64.282593,135.972839 
	C57.883167,147.798843 51.805233,159.030746 45.323284,171.009247 
	C47.409443,170.909393 48.204899,170.871323 49.464256,170.903503 
	C74.996742,170.982498 100.066612,171.107407 125.132011,170.829269 
	C127.784599,170.799835 130.410919,168.404297 133.360291,166.939453 
	C138.110458,159.019302 142.531601,151.255692 146.993317,143.515488 
	C153.893021,131.545914 160.937897,119.657570 167.646088,107.581940 
	C169.154510,104.866554 171.295319,101.617653 168.167664,97.983841 
	C167.370544,95.310432 167.000458,92.808586 165.864960,90.723579 
	C162.670990,84.858772 158.969894,79.267822 155.832016,73.375443 
	C152.785782,67.655167 147.980606,65.269775 141.862305,65.031517 
	C137.703613,64.869568 133.533524,65.000092 129.368530,65.000038 
	C121.985962,64.999947 114.603394,65.000008 106.359352,65.000008 
	C113.033051,53.288887 119.186760,42.490238 125.734573,31.000025 
	C122.800217,31.000025 120.987465,31.000023 119.174713,31.000023 
	C96.183952,31.000021 73.178253,31.476229 50.210072,30.756067 
	C41.519844,30.483587 37.182541,33.858788 33.350346,40.958923 
	C24.452059,57.445297 14.928977,73.596085 5.538058,89.812782 
	C4.408342,91.763626 2.530886,93.281464 1.000000,95.000000 
M766.000000,100.830498 
	C765.537231,93.199654 772.614441,86.925400 778.948486,90.075424 
	C783.521240,92.349457 784.892395,96.791031 784.957458,101.513748 
	C785.096313,111.601517 785.000000,121.692528 785.000000,131.720245 
	C789.969788,131.720245 794.373291,131.720245 799.000000,131.720245 
	C799.000000,123.641792 798.897705,115.838913 799.045776,108.040802 
	C799.113464,104.474854 799.410217,100.868034 800.075928,97.369728 
	C800.968689,92.678429 805.931641,88.692719 809.887695,89.020515 
	C814.683472,89.417885 817.992004,93.644478 817.997253,99.424553 
	C818.006958,110.187454 818.000000,120.950378 818.000000,131.752686 
	C823.237000,131.752686 827.972351,131.752686 833.000000,131.752686 
	C833.000000,119.886757 832.999939,108.265724 832.999817,96.644699 
	C832.999817,95.812309 833.211365,94.909683 832.962830,94.159569 
	C831.813782,90.691940 831.053894,86.952766 829.196106,83.892776 
	C825.522949,77.842575 819.114258,75.319786 812.600159,75.244682 
	C805.601257,75.163994 799.101929,77.855431 795.457214,84.997932 
	C792.026001,78.032318 785.801697,75.223907 779.352661,75.380127 
	C774.145142,75.506271 769.010437,78.634232 764.114258,80.336372 
	C763.756348,75.243271 763.025757,74.952156 751.205933,76.461792 
	C751.205933,94.836182 751.205933,113.227982 751.205933,131.796143 
	C756.146912,131.796143 760.881348,131.796143 766.000000,131.796143 
	C766.000000,121.651932 766.000000,111.706642 766.000000,100.830498 
M291.003906,56.711224 
	C291.003906,81.784599 291.003906,106.857971 291.003906,131.638763 
	C296.463501,131.638763 301.208618,131.638763 306.000031,131.638763 
	C306.000031,120.948753 305.925385,110.619095 306.024384,100.291107 
	C306.099579,92.445168 312.917908,87.279312 319.600403,90.054565 
	C324.127716,91.934776 326.025116,95.710449 326.009979,100.558006 
	C325.977478,110.983780 326.000000,121.409721 326.000000,131.689911 
	C331.025726,131.689911 335.431335,131.689911 340.000000,131.689911 
	C340.000000,118.898964 340.267883,106.410133 339.925201,93.938080 
	C339.577393,81.280441 328.725525,74.032173 317.153809,76.029297 
	C313.375305,76.681412 309.720032,78.047638 305.834167,79.136086 
	C305.834167,71.311783 305.834167,63.356636 305.834167,54.683048 
	C300.740265,55.049797 295.897980,55.398426 291.003906,56.711224 
M402.000000,98.500031 
	C402.000000,91.073029 402.000000,83.646027 402.000000,76.115982 
	C397.823639,76.115982 394.193909,76.115982 390.541626,76.115982 
	C389.916809,77.674530 389.303406,79.204643 388.663147,80.801697 
	C387.575714,80.238892 386.595764,79.934517 385.871704,79.325768 
	C378.230316,72.901138 363.816620,75.192726 357.599030,81.772667 
	C350.294891,89.502441 347.874817,98.808601 349.227112,108.730011 
	C350.393127,117.284599 354.022186,125.116165 362.293732,129.756027 
	C371.723969,135.045883 380.405914,133.146347 388.748535,127.188614 
	C390.245941,132.701584 392.193726,133.290924 402.000000,131.357330 
	C402.000000,120.764221 402.000000,110.132126 402.000000,98.500031 
M738.000000,88.510117 
	C738.000000,84.408234 738.000000,80.306343 738.000000,76.216896 
	C733.668152,76.216896 729.896179,76.216896 726.222595,76.216896 
	C725.995850,77.957535 725.798950,79.468887 725.534302,81.500092 
	C724.499390,80.722740 724.007080,80.345062 723.506775,79.978287 
	C712.425415,71.854477 697.362976,75.055069 690.589722,85.876816 
	C685.651123,93.767448 684.264282,102.252213 686.016785,111.288673 
	C688.821045,125.748466 701.025208,135.800842 715.883789,131.880905 
	C719.305237,130.978256 722.394531,128.816422 725.828064,127.140656 
	C725.942261,128.763016 726.050842,130.305603 726.149048,131.700256 
	C730.334900,131.700256 734.073792,131.700256 738.000000,131.700256 
	C738.000000,117.436874 738.000000,103.472397 738.000000,88.510117 
M249.688568,116.132515 
	C248.031967,114.825928 246.013184,113.793839 244.779785,112.166489 
	C238.561020,103.961578 238.419785,92.905212 242.512817,84.104996 
	C245.712158,77.226257 253.225433,73.883644 260.688873,76.175072 
	C264.513763,77.349388 267.773773,80.363647 271.487091,82.669319 
	C274.999908,80.535072 278.970581,78.122650 282.934784,75.714149 
	C274.366058,60.413567 254.564590,55.876411 240.029663,65.362816 
	C225.797668,74.651497 222.444183,91.648933 225.592346,106.019485 
	C228.752136,120.443214 237.320007,129.420456 252.507233,132.393600 
	C262.666199,134.382385 279.694031,127.898277 282.586029,116.963959 
	C278.507446,114.684341 274.403076,112.390327 270.329620,110.113586 
	C265.737946,117.119949 259.525543,119.078224 249.688568,116.132515 
M516.447327,79.036293 
	C518.479431,74.156387 522.766174,73.641029 526.906982,74.590309 
	C531.084106,75.547928 534.992859,77.676575 539.197144,79.363586 
	C541.320129,75.900574 543.580383,72.213615 546.273987,67.819824 
	C543.311340,66.199951 540.552124,63.910664 537.423035,63.156864 
	C532.268799,61.915207 526.892273,61.360992 521.578918,61.064102 
	C510.725586,60.457661 503.057343,67.641182 501.089508,77.355804 
	C498.957001,87.883484 504.325104,96.149597 514.958435,100.045624 
	C519.155762,101.583488 523.411438,103.098969 527.346130,105.181023 
	C532.089722,107.691086 533.559387,114.285660 529.806702,116.364250 
	C526.786377,118.037193 522.632996,118.984535 519.284973,118.429146 
	C514.539429,117.641914 510.072083,115.177597 505.044189,113.261711 
	C503.006775,116.863007 500.741211,120.867630 498.378143,125.044601 
	C508.311310,131.520370 518.346252,134.462479 529.582153,131.988159 
	C544.975769,128.598221 550.795898,113.331390 544.780518,101.469551 
	C541.102539,94.216919 533.872437,91.819267 526.994873,89.021477 
	C522.318054,87.118988 516.716431,86.304604 516.447327,79.036293 
M675.065125,86.543053 
	C669.838257,77.255043 657.798218,73.442780 646.811890,76.630623 
	C629.560791,81.636299 624.560547,102.001251 630.108643,116.309532 
	C634.343567,127.231369 643.285217,132.086609 654.191162,132.814560 
	C662.530579,133.371216 670.656616,131.489700 676.221252,123.941406 
	C673.636902,120.844170 671.234009,117.964371 668.876526,115.139000 
	C653.407654,122.988136 646.956604,121.469826 642.392639,108.806831 
	C654.592896,108.806831 666.673523,108.806831 678.917053,108.806831 
	C679.120300,101.131325 679.626892,93.775925 675.065125,86.543053 
M442.000000,92.501831 
	C442.000000,105.590233 442.000000,118.678635 442.000000,131.726013 
	C446.957581,131.726013 451.361298,131.726013 456.000000,131.726013 
	C456.000000,122.155510 455.867249,112.853867 456.084137,103.560371 
	C456.145966,100.909447 456.928528,98.167923 457.898834,95.669151 
	C459.635498,91.196655 464.643250,88.259430 468.371918,89.114662 
	C473.394958,90.266785 475.992218,93.759743 475.997223,99.424301 
	C476.006744,110.187988 476.000000,120.951683 476.000000,131.751144 
	C481.239563,131.751144 485.975311,131.751144 491.000000,131.751144 
	C491.000000,124.211884 491.129395,116.914673 490.961578,109.624298 
	C490.810547,103.062012 491.049774,96.370468 489.829865,89.981689 
	C488.068146,80.755539 478.702118,73.813377 467.379059,76.015648 
	C463.123291,76.843369 459.079773,78.762375 454.606628,80.298141 
	C454.306915,79.125519 453.927368,77.640656 453.582458,76.291145 
	C449.695282,76.291145 445.946381,76.291145 442.000000,76.291145 
	C442.000000,81.554863 442.000000,86.529083 442.000000,92.501831 
M572.000000,101.511459 
	C572.000000,97.741539 572.000000,93.971619 572.000000,89.831772 
	C576.634033,89.831772 580.716309,89.831772 584.718750,89.831772 
	C584.718750,85.026505 584.718750,80.621002 584.718750,75.833817 
	C580.362488,75.833817 576.278015,75.833817 571.890503,75.833817 
	C571.890503,71.999290 571.890503,68.554047 571.890503,65.013733 
	C566.797302,65.843788 562.040833,66.618965 556.910828,67.455025 
	C556.910828,70.215912 556.910828,72.968086 556.910828,76.087204 
	C554.454590,76.087204 552.380188,76.087204 550.232178,76.087204 
	C550.232178,80.882401 550.232178,85.295364 550.232178,90.078842 
	C552.527771,90.078842 554.605408,90.078842 557.000000,90.078842 
	C557.000000,98.910606 556.773621,107.379387 557.072632,115.829582 
	C557.306030,122.424629 559.760437,128.219193 566.265442,130.994217 
	C572.790222,133.777695 579.447510,133.908417 585.718689,129.983307 
	C586.346497,129.590378 587.078369,128.424774 586.915955,127.861908 
	C585.930054,124.445740 584.698669,121.100418 583.479797,117.527710 
	C582.135803,118.076996 581.574646,118.362015 580.981384,118.540199 
	C574.484985,120.491348 572.005859,118.680412 572.000366,111.995308 
	C571.997803,108.830940 572.000000,105.666565 572.000000,101.511459 
M594.000000,102.500000 
	C594.000000,112.261131 594.000000,122.022270 594.000000,131.716858 
	C599.307617,131.716858 604.045654,131.716858 609.000000,131.716858 
	C609.000000,122.297462 608.635498,113.137840 609.176331,104.031967 
	C609.397888,100.301376 610.604370,95.638893 613.125610,93.303650 
	C615.846252,90.783775 620.629150,90.490364 624.808105,89.129402 
	C624.808105,85.609009 624.808105,80.988243 624.808105,76.339378 
	C617.858643,74.874031 612.378601,77.432037 606.967102,83.390373 
	C606.967102,79.927193 606.967102,78.068443 606.967102,76.000038 
	C603.828430,76.000038 601.165710,76.178848 598.536926,75.955994 
	C595.040100,75.659538 593.823242,76.993164 593.934753,80.515320 
	C594.155945,87.503899 594.000000,94.504425 594.000000,102.500000 
M415.000000,114.498749 
	C415.000000,120.263359 415.000000,126.027977 415.000000,131.711334 
	C419.982269,131.711334 424.388123,131.711334 428.714417,131.711334 
	C428.714417,113.018890 428.714417,94.616501 428.714417,76.288712 
	C424.017639,76.288712 419.611755,76.288712 415.000000,76.288712 
	C415.000000,88.883934 415.000000,101.191658 415.000000,114.498749 
M422.354919,69.960693 
	C423.083771,69.639153 423.802277,69.291183 424.543213,69.000427 
	C428.804108,67.328331 431.058380,62.903240 429.987854,58.285404 
	C429.218842,54.968086 424.633942,52.513798 420.115540,53.000751 
	C416.502930,53.390083 414.213318,57.027142 413.925140,61.551060 
	C413.562073,67.251083 417.717010,68.352798 422.354919,69.960693 
z"/>
<path fill="#7438E5" opacity="1.000000" stroke="none" 
	d="
M55.001396,135.833679 
	C45.369831,135.888885 35.738258,135.985306 26.106701,135.983871 
	C20.300108,135.983017 16.998503,132.308517 14.305665,127.731133 
	C10.116050,120.609474 5.841809,113.537605 1.301718,106.722321 
	C1.000000,103.307091 1.000000,99.614182 1.000000,95.460632 
	C2.530886,93.281464 4.408342,91.763626 5.538058,89.812782 
	C14.928977,73.596085 24.452059,57.445297 33.350346,40.958923 
	C37.182541,33.858788 41.519844,30.483587 50.210072,30.756067 
	C73.178253,31.476229 96.183952,31.000021 119.174713,31.000023 
	C120.987465,31.000023 122.800217,31.000025 125.734573,31.000025 
	C119.186760,42.490238 113.033051,53.288887 106.359352,65.000008 
	C114.603394,65.000008 121.985962,64.999947 129.368530,65.000038 
	C133.533524,65.000092 137.703613,64.869568 141.862305,65.031517 
	C147.980606,65.269775 152.785782,67.655167 155.832016,73.375443 
	C158.969894,79.267822 162.670990,84.858772 165.864960,90.723579 
	C167.000458,92.808586 167.370544,95.310432 168.094299,98.414650 
	C166.961075,102.102394 166.140808,105.176804 164.625305,107.858269 
	C160.426056,115.288193 155.883987,122.523338 151.575256,129.892670 
	C145.418152,140.423309 139.262466,150.957275 133.341949,161.620743 
	C132.542938,163.059830 133.113205,165.259171 133.049438,167.106476 
	C130.410919,168.404297 127.784599,170.799835 125.132011,170.829269 
	C100.066612,171.107407 74.996742,170.982498 49.470905,170.537262 
	C52.219288,164.019775 55.527466,157.990021 58.599247,151.842133 
	C61.221558,146.593796 63.572323,141.209778 66.506836,135.933868 
	C77.898048,135.987946 88.825706,135.971237 99.753189,136.009567 
	C105.205933,136.028702 109.326233,134.095657 112.049583,129.041565 
	C115.887184,121.919647 120.108612,115.004547 124.529083,107.990936 
	C125.786362,106.396103 127.705833,104.547127 127.378555,103.277138 
	C126.469376,99.749107 123.526039,98.845985 119.705933,99.945602 
	C109.386826,100.066208 99.429779,100.004745 89.661049,99.375664 
	C89.810112,97.645363 89.770851,96.482681 89.813187,94.987991 
	C94.613045,85.281853 99.331314,75.907722 104.316498,66.003311 
	C91.158195,66.003311 78.688034,65.884415 66.225471,66.138359 
	C64.464561,66.174248 62.051800,67.600906 61.114803,69.111885 
	C56.137226,77.138641 51.484879,85.369667 46.820137,93.586861 
	C44.101425,98.376007 44.438267,99.022575 50.082901,101.530579 
	C52.221142,102.596413 54.260242,103.838142 56.337437,103.905518 
	C64.880936,104.182640 73.436005,104.102798 81.959671,104.563095 
	C76.899376,114.314026 71.866241,123.656097 66.395775,132.998779 
	C62.179710,133.455582 57.807785,131.618515 55.001396,135.833679 
z"/>
<path fill="#FFFFFF" opacity="1.000000" stroke="none" 
	d="
M766.000000,101.295929 
	C766.000000,111.706642 766.000000,121.651932 766.000000,131.796143 
	C760.881348,131.796143 756.146912,131.796143 751.205933,131.796143 
	C751.205933,113.227982 751.205933,94.836182 751.205933,76.461792 
	C763.025757,74.952156 763.756348,75.243271 764.114258,80.336372 
	C769.010437,78.634232 774.145142,75.506271 779.352661,75.380127 
	C785.801697,75.223907 792.026001,78.032318 795.457214,84.997932 
	C799.101929,77.855431 805.601257,75.163994 812.600159,75.244682 
	C819.114258,75.319786 825.522949,77.842575 829.196106,83.892776 
	C831.053894,86.952766 831.813782,90.691940 832.962830,94.159569 
	C833.211365,94.909683 832.999817,95.812309 832.999817,96.644699 
	C832.999939,108.265724 833.000000,119.886757 833.000000,131.752686 
	C827.972351,131.752686 823.237000,131.752686 818.000000,131.752686 
	C818.000000,120.950378 818.006958,110.187454 817.997253,99.424553 
	C817.992004,93.644478 814.683472,89.417885 809.887695,89.020515 
	C805.931641,88.692719 800.968689,92.678429 800.075928,97.369728 
	C799.410217,100.868034 799.113464,104.474854 799.045776,108.040802 
	C798.897705,115.838913 799.000000,123.641792 799.000000,131.720245 
	C794.373291,131.720245 789.969788,131.720245 785.000000,131.720245 
	C785.000000,121.692528 785.096313,111.601517 784.957458,101.513748 
	C784.892395,96.791031 783.521240,92.349457 778.948486,90.075424 
	C772.614441,86.925400 765.537231,93.199654 766.000000,101.295929 
z"/>
<path fill="#FFFFFF" opacity="1.000000" stroke="none" 
	d="
M291.029785,56.229141 
	C295.897980,55.398426 300.740265,55.049797 305.834167,54.683048 
	C305.834167,63.356636 305.834167,71.311783 305.834167,79.136086 
	C309.720032,78.047638 313.375305,76.681412 317.153809,76.029297 
	C328.725525,74.032173 339.577393,81.280441 339.925201,93.938080 
	C340.267883,106.410133 340.000000,118.898964 340.000000,131.689911 
	C335.431335,131.689911 331.025726,131.689911 326.000000,131.689911 
	C326.000000,121.409721 325.977478,110.983780 326.009979,100.558006 
	C326.025116,95.710449 324.127716,91.934776 319.600403,90.054565 
	C312.917908,87.279312 306.099579,92.445168 306.024384,100.291107 
	C305.925385,110.619095 306.000031,120.948753 306.000031,131.638763 
	C301.208618,131.638763 296.463501,131.638763 291.003906,131.638763 
	C291.003906,106.857971 291.003906,81.784599 291.029785,56.229141 
z"/>
<path fill="#FFFFFF" opacity="1.000000" stroke="none" 
	d="
M402.000000,99.000031 
	C402.000000,110.132126 402.000000,120.764221 402.000000,131.357330 
	C392.193726,133.290924 390.245941,132.701584 388.748535,127.188614 
	C380.405914,133.146347 371.723969,135.045883 362.293732,129.756027 
	C354.022186,125.116165 350.393127,117.284599 349.227112,108.730011 
	C347.874817,98.808601 350.294891,89.502441 357.599030,81.772667 
	C363.816620,75.192726 378.230316,72.901138 385.871704,79.325768 
	C386.595764,79.934517 387.575714,80.238892 388.663147,80.801697 
	C389.303406,79.204643 389.916809,77.674530 390.541626,76.115982 
	C394.193909,76.115982 397.823639,76.115982 402.000000,76.115982 
	C402.000000,83.646027 402.000000,91.073029 402.000000,99.000031 
M378.477661,118.058075 
	C384.067627,117.100998 389.496948,109.395256 387.033112,99.622192 
	C385.204773,92.370003 380.122284,88.845207 372.562866,90.006134 
	C366.789764,90.892731 363.007629,98.449821 364.001495,107.112495 
	C364.864349,114.633003 370.400299,119.214706 378.477661,118.058075 
z"/>
<path fill="#FFFFFF" opacity="1.000000" stroke="none" 
	d="
M738.000000,89.009018 
	C738.000000,103.472397 738.000000,117.436874 738.000000,131.700256 
	C734.073792,131.700256 730.334900,131.700256 726.149048,131.700256 
	C726.050842,130.305603 725.942261,128.763016 725.828064,127.140656 
	C722.394531,128.816422 719.305237,130.978256 715.883789,131.880905 
	C701.025208,135.800842 688.821045,125.748466 686.016785,111.288673 
	C684.264282,102.252213 685.651123,93.767448 690.589722,85.876816 
	C697.362976,75.055069 712.425415,71.854477 723.506775,79.978287 
	C724.007080,80.345062 724.499390,80.722740 725.534302,81.500092 
	C725.798950,79.468887 725.995850,77.957535 726.222595,76.216896 
	C729.896179,76.216896 733.668152,76.216896 738.000000,76.216896 
	C738.000000,80.306343 738.000000,84.408234 738.000000,89.009018 
M722.680664,110.847565 
	C723.120178,107.969734 724.069946,105.058960 723.886719,102.221336 
	C723.563660,97.218910 721.255981,92.485176 716.713318,90.543808 
	C713.003967,88.958565 708.143372,88.849220 704.708130,92.134827 
	C700.867065,95.808578 699.612549,100.705116 700.029175,105.924706 
	C700.550354,112.454216 705.271851,117.968628 710.949707,118.976059 
	C714.951355,119.686081 719.889526,116.334801 722.680664,110.847565 
z"/>
<path fill="#FFFFFF" opacity="1.000000" stroke="none" 
	d="
M249.947525,116.434250 
	C259.525543,119.078224 265.737946,117.119949 270.329620,110.113586 
	C274.403076,112.390327 278.507446,114.684341 282.586029,116.963959 
	C279.694031,127.898277 262.666199,134.382385 252.507233,132.393600 
	C237.320007,129.420456 228.752136,120.443214 225.592346,106.019485 
	C222.444183,91.648933 225.797668,74.651497 240.029663,65.362816 
	C254.564590,55.876411 274.366058,60.413567 282.934784,75.714149 
	C278.970581,78.122650 274.999908,80.535072 271.487091,82.669319 
	C267.773773,80.363647 264.513763,77.349388 260.688873,76.175072 
	C253.225433,73.883644 245.712158,77.226257 242.512817,84.104996 
	C238.419785,92.905212 238.561020,103.961578 244.779785,112.166489 
	C246.013184,113.793839 248.031967,114.825928 249.947525,116.434250 
z"/>
<path fill="#FFFFFF" opacity="1.000000" stroke="none" 
	d="
M516.240845,79.369827 
	C516.716431,86.304604 522.318054,87.118988 526.994873,89.021477 
	C533.872437,91.819267 541.102539,94.216919 544.780518,101.469551 
	C550.795898,113.331390 544.975769,128.598221 529.582153,131.988159 
	C518.346252,134.462479 508.311310,131.520370 498.378143,125.044601 
	C500.741211,120.867630 503.006775,116.863007 505.044189,113.261711 
	C510.072083,115.177597 514.539429,117.641914 519.284973,118.429146 
	C522.632996,118.984535 526.786377,118.037193 529.806702,116.364250 
	C533.559387,114.285660 532.089722,107.691086 527.346130,105.181023 
	C523.411438,103.098969 519.155762,101.583488 514.958435,100.045624 
	C504.325104,96.149597 498.957001,87.883484 501.089508,77.355804 
	C503.057343,67.641182 510.725586,60.457661 521.578918,61.064102 
	C526.892273,61.360992 532.268799,61.915207 537.423035,63.156864 
	C540.552124,63.910664 543.311340,66.199951 546.273987,67.819824 
	C543.580383,72.213615 541.320129,75.900574 539.197144,79.363586 
	C534.992859,77.676575 531.084106,75.547928 526.906982,74.590309 
	C522.766174,73.641029 518.479431,74.156387 516.240845,79.369827 
z"/>
<path fill="#FFFFFF" opacity="1.000000" stroke="none" 
	d="
M675.336060,86.813858 
	C679.626892,93.775925 679.120300,101.131325 678.917053,108.806831 
	C666.673523,108.806831 654.592896,108.806831 642.392639,108.806831 
	C646.956604,121.469826 653.407654,122.988136 668.876526,115.139000 
	C671.234009,117.964371 673.636902,120.844170 676.221252,123.941406 
	C670.656616,131.489700 662.530579,133.371216 654.191162,132.814560 
	C643.285217,132.086609 634.343567,127.231369 630.108643,116.309532 
	C624.560547,102.001251 629.560791,81.636299 646.811890,76.630623 
	C657.798218,73.442780 669.838257,77.255043 675.336060,86.813858 
M645.096313,97.999992 
	C651.680054,97.999992 658.263733,97.999992 664.846985,97.999992 
	C664.726868,91.428253 660.736389,87.853798 654.114441,88.000053 
	C648.774170,88.117996 642.419434,93.375969 642.573547,97.631157 
	C642.578674,97.773933 643.658752,97.877785 645.096313,97.999992 
z"/>
<path fill="#FFFFFF" opacity="1.000000" stroke="none" 
	d="
M442.000000,92.002563 
	C442.000000,86.529083 442.000000,81.554863 442.000000,76.291145 
	C445.946381,76.291145 449.695282,76.291145 453.582458,76.291145 
	C453.927368,77.640656 454.306915,79.125519 454.606628,80.298141 
	C459.079773,78.762375 463.123291,76.843369 467.379059,76.015648 
	C478.702118,73.813377 488.068146,80.755539 489.829865,89.981689 
	C491.049774,96.370468 490.810547,103.062012 490.961578,109.624298 
	C491.129395,116.914673 491.000000,124.211884 491.000000,131.751144 
	C485.975311,131.751144 481.239563,131.751144 476.000000,131.751144 
	C476.000000,120.951683 476.006744,110.187988 475.997223,99.424301 
	C475.992218,93.759743 473.394958,90.266785 468.371918,89.114662 
	C464.643250,88.259430 459.635498,91.196655 457.898834,95.669151 
	C456.928528,98.167923 456.145966,100.909447 456.084137,103.560371 
	C455.867249,112.853867 456.000000,122.155510 456.000000,131.726013 
	C451.361298,131.726013 446.957581,131.726013 442.000000,131.726013 
	C442.000000,118.678635 442.000000,105.590233 442.000000,92.002563 
z"/>
<path fill="#FFFFFF" opacity="1.000000" stroke="none" 
	d="
M572.000000,102.006828 
	C572.000000,105.666565 571.997803,108.830940 572.000366,111.995308 
	C572.005859,118.680412 574.484985,120.491348 580.981384,118.540199 
	C581.574646,118.362015 582.135803,118.076996 583.479797,117.527710 
	C584.698669,121.100418 585.930054,124.445740 586.915955,127.861908 
	C587.078369,128.424774 586.346497,129.590378 585.718689,129.983307 
	C579.447510,133.908417 572.790222,133.777695 566.265442,130.994217 
	C559.760437,128.219193 557.306030,122.424629 557.072632,115.829582 
	C556.773621,107.379387 557.000000,98.910606 557.000000,90.078842 
	C554.605408,90.078842 552.527771,90.078842 550.232178,90.078842 
	C550.232178,85.295364 550.232178,80.882401 550.232178,76.087204 
	C552.380188,76.087204 554.454590,76.087204 556.910828,76.087204 
	C556.910828,72.968086 556.910828,70.215912 556.910828,67.455025 
	C562.040833,66.618965 566.797302,65.843788 571.890503,65.013733 
	C571.890503,68.554047 571.890503,71.999290 571.890503,75.833817 
	C576.278015,75.833817 580.362488,75.833817 584.718750,75.833817 
	C584.718750,80.621002 584.718750,85.026505 584.718750,89.831772 
	C580.716309,89.831772 576.634033,89.831772 572.000000,89.831772 
	C572.000000,93.971619 572.000000,97.741539 572.000000,102.006828 
z"/>
<path fill="#FFFFFF" opacity="1.000000" stroke="none" 
	d="
M594.000000,102.000000 
	C594.000000,94.504425 594.155945,87.503899 593.934753,80.515320 
	C593.823242,76.993164 595.040100,75.659538 598.536926,75.955994 
	C601.165710,76.178848 603.828430,76.000038 606.967102,76.000038 
	C606.967102,78.068443 606.967102,79.927193 606.967102,83.390373 
	C612.378601,77.432037 617.858643,74.874031 624.808105,76.339378 
	C624.808105,80.988243 624.808105,85.609009 624.808105,89.129402 
	C620.629150,90.490364 615.846252,90.783775 613.125610,93.303650 
	C610.604370,95.638893 609.397888,100.301376 609.176331,104.031967 
	C608.635498,113.137840 609.000000,122.297462 609.000000,131.716858 
	C604.045654,131.716858 599.307617,131.716858 594.000000,131.716858 
	C594.000000,122.022270 594.000000,112.261131 594.000000,102.000000 
z"/>
<path fill="#FFFFFF" opacity="1.000000" stroke="none" 
	d="
M415.000000,113.999062 
	C415.000000,101.191658 415.000000,88.883934 415.000000,76.288712 
	C419.611755,76.288712 424.017639,76.288712 428.714417,76.288712 
	C428.714417,94.616501 428.714417,113.018890 428.714417,131.711334 
	C424.388123,131.711334 419.982269,131.711334 415.000000,131.711334 
	C415.000000,126.027977 415.000000,120.263359 415.000000,113.999062 
z"/>
<path fill="#FFFFFF" opacity="1.000000" stroke="none" 
	d="
M421.961975,69.957756 
	C417.717010,68.352798 413.562073,67.251083 413.925140,61.551060 
	C414.213318,57.027142 416.502930,53.390083 420.115540,53.000751 
	C424.633942,52.513798 429.218842,54.968086 429.987854,58.285404 
	C431.058380,62.903240 428.804108,67.328331 424.543213,69.000427 
	C423.802277,69.291183 423.083771,69.639153 421.961975,69.957756 
z"/>
<path fill="#7438E5" opacity="1.000000" stroke="none" 
	d="
M133.360291,166.939453 
	C133.113205,165.259171 132.542938,163.059830 133.341949,161.620743 
	C139.262466,150.957275 145.418152,140.423309 151.575256,129.892670 
	C155.883987,122.523338 160.426056,115.288193 164.625305,107.858269 
	C166.140808,105.176804 166.961075,102.102394 168.171936,98.776489 
	C171.295319,101.617653 169.154510,104.866554 167.646088,107.581940 
	C160.937897,119.657570 153.893021,131.545914 146.993317,143.515488 
	C142.531601,151.255692 138.110458,159.019302 133.360291,166.939453 
z"/>
<path fill="#7438E5" opacity="1.000000" stroke="none" 
	d="
M66.043213,135.885788 
	C63.572323,141.209778 61.221558,146.593796 58.599247,151.842133 
	C55.527466,157.990021 52.219288,164.019775 49.007004,170.467010 
	C48.204899,170.871323 47.409443,170.909393 45.323284,171.009247 
	C51.805233,159.030746 57.883167,147.798843 64.282593,135.972839 
	C61.087967,135.972839 58.486763,135.972839 55.443478,135.903259 
	C57.807785,131.618515 62.179710,133.455582 66.385559,133.312775 
	C66.556183,134.379364 66.299698,135.132584 66.043213,135.885788 
z"/>
<path fill="#000000" opacity="1.000000" stroke="none" 
	d="
M66.506836,135.933868 
	C66.299698,135.132584 66.556183,134.379364 66.822891,133.312164 
	C71.866241,123.656097 76.899376,114.314026 82.313324,104.302696 
	C81.456528,102.755829 80.231010,101.138573 78.979362,101.118088 
	C69.322853,100.960030 59.661282,101.111198 50.001282,101.166504 
	C44.438267,99.022575 44.101425,98.376007 46.820137,93.586861 
	C51.484879,85.369667 56.137226,77.138641 61.114803,69.111885 
	C62.051800,67.600906 64.464561,66.174248 66.225471,66.138359 
	C78.688034,65.884415 91.158195,66.003311 104.316498,66.003311 
	C99.331314,75.907722 94.613045,85.281853 89.518204,95.192001 
	C89.407677,97.120888 84.736542,98.901527 89.472725,99.943283 
	C99.429779,100.004745 109.386826,100.066208 119.778290,100.317154 
	C125.495026,101.689140 125.911812,102.479279 124.165932,108.001015 
	C120.108612,115.004547 115.887184,121.919647 112.049583,129.041565 
	C109.326233,134.095657 105.205933,136.028702 99.753189,136.009567 
	C88.825706,135.971237 77.898048,135.987946 66.506836,135.933868 
M88.180817,100.401611 
	C88.383461,100.475327 88.586105,100.549034 88.788757,100.622742 
	C88.726311,100.416916 88.663864,100.211090 88.180817,100.401611 
z"/>
<path fill="#7438E5" opacity="1.000000" stroke="none" 
	d="
M50.082901,101.530579 
	C59.661282,101.111198 69.322853,100.960030 78.979362,101.118088 
	C80.231010,101.138573 81.456528,102.755829 82.340485,103.893837 
	C73.436005,104.102798 64.880936,104.182640 56.337437,103.905518 
	C54.260242,103.838142 52.221142,102.596413 50.082901,101.530579 
z"/>
<path fill="#7438E5" opacity="1.000000" stroke="none" 
	d="
M124.529083,107.990936 
	C125.911812,102.479279 125.495026,101.689140 120.140343,100.135071 
	C123.526039,98.845985 126.469376,99.749107 127.378555,103.277138 
	C127.705833,104.547127 125.786362,106.396103 124.529083,107.990936 
z"/>
<path fill="#7438E5" opacity="1.000000" stroke="none" 
	d="
M89.661049,99.375664 
	C84.736542,98.901527 89.407677,97.120888 89.436615,95.524017 
	C89.770851,96.482681 89.810112,97.645363 89.661049,99.375664 
z"/>
<path fill="#000000" opacity="1.000000" stroke="none" 
	d="
M378.191406,118.338776 
	C370.400299,119.214706 364.864349,114.633003 364.001495,107.112495 
	C363.007629,98.449821 366.789764,90.892731 372.562866,90.006134 
	C380.122284,88.845207 385.204773,92.370003 387.033112,99.622192 
	C389.496948,109.395256 384.067627,117.100998 378.191406,118.338776 
z"/>
<path fill="#000000" opacity="1.000000" stroke="none" 
	d="
M722.387268,111.130333 
	C719.889526,116.334801 714.951355,119.686081 710.949707,118.976059 
	C705.271851,117.968628 700.550354,112.454216 700.029175,105.924706 
	C699.612549,100.705116 700.867065,95.808578 704.708130,92.134827 
	C708.143372,88.849220 713.003967,88.958565 716.713318,90.543808 
	C721.255981,92.485176 723.563660,97.218910 723.886719,102.221336 
	C724.069946,105.058960 723.120178,107.969734 722.387268,111.130333 
z"/>
<path fill="#000000" opacity="1.000000" stroke="none" 
	d="
M644.667053,97.999893 
	C643.658752,97.877785 642.578674,97.773933 642.573547,97.631157 
	C642.419434,93.375969 648.774170,88.117996 654.114441,88.000053 
	C660.736389,87.853798 664.726868,91.428253 664.846985,97.999992 
	C658.263733,97.999992 651.680054,97.999992 644.667053,97.999893 
z"/>
<path fill="#7438E5" opacity="1.000000" stroke="none" 
	d="
M88.391113,100.203438 
	C88.663864,100.211090 88.726311,100.416916 88.788757,100.622742 
	C88.586105,100.549034 88.383461,100.475327 88.391113,100.203438 
z"/>
</svg>